<?xml version="1.0" encoding="UTF-8" ?>
<!DOCTYPE svg PUBLIC "-//W3C//DTD SVG 1.1//EN" "http://www.w3.org/Graphics/SVG/1.1/DTD/svg11.dtd">
<svg width="616pt" height="608pt" viewBox="0 0 616 608" version="1.1" xmlns="http://www.w3.org/2000/svg">
<g id="#00d9acff">
<path fill="#00d9ac" opacity="1.00" d=" M 422.74 3.74 C 428.34 0.15 436.65 2.35 439.60 8.36 C 442.59 13.73 440.60 21.19 435.26 24.26 C 431.79 26.37 427.19 26.63 423.60 24.69 C 420.66 22.82 418.45 20.03 417.05 16.86 C 416.36 11.89 418.21 6.33 422.74 3.74 Z" />
<path fill="#00d9ac" opacity="1.00" d=" M 174.55 59.61 C 171.92 52.23 178.17 43.68 186.00 44.00 C 192.94 43.77 198.37 50.22 198.24 56.92 C 197.35 60.19 195.74 63.26 193.27 65.61 C 187.05 70.58 176.63 67.36 174.55 59.61 Z" />
<path fill="#00d9ac" opacity="1.00" d=" M 2.00 94.00 C 85.80 93.97 169.60 94.07 253.40 93.95 C 261.03 94.11 268.67 93.97 276.30 93.85 C 288.81 94.15 301.33 93.97 313.85 93.96 C 319.44 93.98 325.03 94.01 330.63 93.99 C 425.09 94.02 519.54 93.99 614.00 94.00 C 614.00 237.00 614.00 380.00 614.00 523.00 C 543.00 523.00 472.00 523.00 401.00 523.00 C 401.00 539.33 401.00 555.67 401.00 572.00 C 412.33 572.00 423.67 572.00 435.00 572.00 C 435.00 583.33 435.00 594.67 435.00 606.00 C 350.33 606.00 265.67 606.00 181.00 606.00 C 181.00 594.66 181.00 583.33 181.00 572.00 C 192.33 572.00 203.67 572.00 215.00 572.00 C 215.00 555.67 215.00 539.33 215.00 523.00 C 144.00 523.00 73.00 523.00 2.00 523.00 C 2.00 380.00 2.00 237.00 2.00 94.00 M 35.00 128.00 C 35.00 248.33 35.00 368.67 35.00 489.00 C 217.00 489.00 399.00 489.00 581.00 489.00 C 581.00 368.67 581.00 248.33 581.00 128.00 C 399.00 128.00 217.00 128.00 35.00 128.00 Z" />
</g>
<g id="#236a6aff">
<path fill="#236a6a" opacity="1.00" d=" M 389.42 37.41 C 398.65 30.59 407.71 23.52 417.05 16.86 C 418.45 20.03 420.66 22.82 423.60 24.69 C 422.16 25.54 420.76 26.45 419.41 27.43 C 392.16 47.85 364.91 68.28 337.57 88.58 C 335.20 90.31 332.86 92.08 330.63 93.99 C 325.03 94.01 319.44 93.98 313.85 93.96 C 338.89 74.92 364.30 56.36 389.42 37.41 Z" />
<path fill="#236a6a" opacity="1.00" d=" M 198.24 56.92 C 219.45 66.44 240.31 76.74 261.39 86.53 C 266.34 89.01 271.59 90.91 276.30 93.85 C 268.67 93.97 261.03 94.11 253.40 93.95 C 233.42 84.38 213.45 74.76 193.27 65.61 C 195.74 63.26 197.35 60.19 198.24 56.92 Z" />
<path fill="#236a6a" opacity="1.00" d=" M 183.52 319.00 C 198.53 318.95 213.54 319.10 228.54 318.91 C 244.55 319.09 260.56 319.00 276.56 318.96 C 290.86 319.01 305.16 319.05 319.46 318.93 C 335.40 319.06 351.35 319.01 367.29 318.96 C 380.66 319.00 394.03 319.07 407.40 318.91 C 416.60 319.09 425.79 318.96 434.99 319.01 C 434.98 352.02 435.04 385.04 434.97 418.06 C 435.18 425.50 428.59 432.25 421.09 431.96 C 347.04 432.06 272.99 431.97 198.94 432.01 C 195.18 432.10 191.21 431.26 188.40 428.60 C 184.40 425.36 183.45 419.87 183.48 415.00 C 183.54 383.00 183.47 351.00 183.52 319.00 Z" />
</g>
<g id="#3397daff">
<path fill="#3397da" opacity="1.00" d=" M 350.23 190.05 C 364.34 188.09 378.42 185.90 392.54 184.01 C 378.96 202.57 364.98 220.83 351.35 239.35 C 350.35 240.60 349.42 242.28 347.61 242.28 C 334.06 244.21 320.52 246.28 306.95 248.11 C 321.24 228.66 335.79 209.39 350.23 190.05 Z" />
<path fill="#3397da" opacity="1.00" d=" M 404.21 267.56 C 414.47 267.47 424.74 267.52 435.00 267.53 C 434.99 277.85 435.01 288.16 435.00 298.47 C 424.71 288.19 414.31 278.02 404.21 267.56 Z" />
</g>
<g id="#9a58b5ff">
<path fill="#9a58b5" opacity="1.00" d=" M 396.64 235.13 C 407.09 220.76 418.07 206.76 428.36 192.27 C 429.32 201.22 430.95 210.09 432.07 219.03 C 432.99 224.64 428.72 230.41 423.13 231.29 C 414.32 232.69 405.47 233.90 396.64 235.13 Z" />
<path fill="#9a58b5" opacity="1.00" d=" M 315.26 267.36 C 328.95 267.83 342.68 267.13 356.35 267.70 C 368.37 279.31 380.02 291.33 391.91 303.09 C 397.04 308.39 402.55 313.34 407.40 318.91 C 394.03 319.07 380.66 319.00 367.29 318.96 C 354.24 305.60 340.79 292.63 327.62 279.39 C 323.48 275.39 319.61 271.12 315.26 267.36 Z" />
</g>
<g id="#e64b3bff">
<path fill="#e64b3b" opacity="1.00" d=" M 265.95 202.25 C 278.27 200.54 290.56 198.65 302.88 196.97 C 288.51 216.26 274.15 235.58 259.65 254.78 C 246.33 257.32 232.76 258.71 219.36 260.90 C 233.73 242.06 247.73 222.93 261.99 203.99 C 262.81 202.59 264.50 202.46 265.95 202.25 Z" />
<path fill="#e64b3b" opacity="1.00" d=" M 184.07 274.07 C 197.71 287.71 211.35 301.37 225.01 315.00 C 226.26 316.23 227.45 317.53 228.54 318.91 C 213.54 319.10 198.53 318.95 183.52 319.00 C 183.47 307.00 183.53 295.00 183.49 283.01 C 183.44 280.01 183.66 277.03 184.07 274.07 Z" />
</g>
<g id="#f0c30eff">
<path fill="#f0c30e" opacity="1.00" d=" M 188.39 213.56 C 197.40 212.17 206.42 210.82 215.45 209.61 C 204.87 224.26 193.91 238.64 183.10 253.12 C 181.62 244.11 180.38 235.06 179.11 226.02 C 178.19 220.27 182.63 214.34 188.39 213.56 Z" />
<path fill="#f0c30e" opacity="1.00" d=" M 225.02 267.38 C 238.94 267.68 252.87 267.40 266.80 267.52 C 268.53 267.50 269.56 269.21 270.77 270.20 C 286.91 286.54 303.57 302.37 319.46 318.93 C 305.16 319.05 290.86 319.01 276.56 318.96 C 259.57 301.59 242.34 284.42 225.02 267.38 Z" />
</g>
</svg>
