<?xml version="1.0" encoding="UTF-8"?>
<svg width="81px" height="54px" viewBox="0 0 81 54" version="1.1" xmlns="http://www.w3.org/2000/svg" xmlns:xlink="http://www.w3.org/1999/xlink">
    <!-- Generator: Sketch 52.1 (67048) - http://www.bohemiancoding.com/sketch -->
    <title>cam-icon</title>
    <desc>Created with Sketch.</desc>
    <g id="Page-1" stroke="none" stroke-width="1" fill="none" fill-rule="evenodd">
        <g id="Artboard-2" transform="translate(-323.000000, -151.000000)" fill-rule="nonzero">
            <g id="cam-icon" transform="translate(323.000000, 151.000000)">
                <path d="M19,54 L19,27 C19,25.3431458 17.6568542,24 16,24 C14.3431458,24 13,25.3431458 13,27 L13,53.418483 C10.0681697,52.2317082 8,49.3573776 8,46 L8,27 C8,22.581722 11.581722,19 16,19 L52.5,19 C56.918278,19 60.5,22.581722 60.5,27 L60.5,46 C60.5,50.418278 56.918278,54 52.5,54 L19,54 Z" id="book" fill="#182231"></path>
                <path d="M1.27941354,29 L19,29 L19,38 L1.27941354,38 C0.727128792,38 0.279413542,37.5522847 0.279413542,37 C0.279413542,36.6998483 0.414235725,36.41557 0.646658888,36.2256477 L3.03461461,34.2743523 C3.4622776,33.9248916 3.52567304,33.2949083 3.1762123,32.8672453 C3.13386967,32.8154273 3.08643266,32.7679903 3.03461461,32.7256477 L0.646658888,30.7743523 C0.218995899,30.4248916 0.155600455,29.7949083 0.505061201,29.3672453 C0.694983579,29.1348222 0.979261853,29 1.27941354,29 Z" id="bookmark" fill="#C12424"></path>
                <circle id="wheel-2" fill="#182231" cx="23.5" cy="8.5" r="8.5"></circle>
                <circle id="wheel-1" fill="#182231" cx="43.5" cy="8.5" r="8.5"></circle>
                <polygon id="lense" stroke="#182231" stroke-width="5" fill="#182231" stroke-linecap="round" stroke-linejoin="round" transform="translate(71.375000, 36.375000) scale(-1, 1) rotate(90.000000) translate(-71.375000, -36.375000) " points="71.375 30 77.75 42.75 65 42.75"></polygon>
            </g>
        </g>
    </g>
</svg>